# Blender 3.6.2
# www.blender.org
o Blob
v 0.000000 -0.000000 -0.750000
v -0.146318 -0.000000 -0.735589
v -0.287013 -0.000000 -0.692910
v -0.416678 -0.000000 -0.623602
v -0.530330 -0.000000 -0.530330
v -0.623602 -0.000000 -0.416678
v -0.692910 -0.000000 -0.287013
v -0.735589 -0.000000 -0.146318
v -0.750000 0.000000 0.000000
v -0.735589 0.000000 0.146318
v -0.692910 0.000000 0.287013
v -0.623602 0.000000 0.416678
v -0.530330 0.000000 0.530330
v -0.416678 0.000000 0.623602
v -0.287013 0.000000 0.692910
v -0.146318 0.000000 0.735589
v 0.000000 0.000000 0.750000
v 0.146318 0.000000 0.735589
v 0.287013 0.000000 0.692910
v 0.416678 0.000000 0.623602
v 0.530330 0.000000 0.530330
v 0.623602 0.000000 0.416678
v 0.692910 0.000000 0.287013
v 0.735589 0.000000 0.146318
v 0.750000 0.000000 0.000000
v 0.735589 -0.000000 -0.146318
v 0.692910 -0.000000 -0.287013
v 0.623602 -0.000000 -0.416678
v 0.530330 -0.000000 -0.530330
v 0.416678 -0.000000 -0.623602
v 0.287013 -0.000000 -0.692910
v 0.146318 -0.000000 -0.735589
v 0.000000 0.000000 0.000000
v 0.630505 -0.000000 -0.125415
v 0.525421 -0.000000 -0.104513
v 0.420337 -0.000000 -0.083610
v 0.315252 -0.000000 -0.062708
v 0.210168 -0.000000 -0.041805
v 0.105084 -0.000000 -0.020903
v 0.098987 -0.000000 -0.041002
v 0.197974 -0.000000 -0.082004
v 0.296961 -0.000000 -0.123005
v 0.395948 -0.000000 -0.164007
v 0.494935 -0.000000 -0.205009
v 0.593922 -0.000000 -0.246011
v -0.454569 0.000000 0.454569
v -0.378807 0.000000 0.378807
v -0.303046 0.000000 0.303046
v -0.227284 0.000000 0.227284
v -0.151523 0.000000 0.151523
v -0.075761 0.000000 0.075761
v -0.059525 0.000000 0.089086
v -0.119051 0.000000 0.178172
v -0.178576 0.000000 0.267258
v -0.238102 0.000000 0.356344
v -0.297627 0.000000 0.445430
v -0.357152 0.000000 0.534516
v 0.089086 -0.000000 -0.059525
v 0.178172 -0.000000 -0.119051
v 0.267258 -0.000000 -0.178576
v 0.356344 -0.000000 -0.238102
v 0.445430 -0.000000 -0.297627
v 0.534516 -0.000000 -0.357152
v -0.041002 0.000000 0.098987
v -0.082004 0.000000 0.197974
v -0.123005 0.000000 0.296961
v -0.164007 0.000000 0.395948
v -0.205009 0.000000 0.494935
v -0.246011 0.000000 0.593922
v 0.000000 -0.000000 -0.642857
v 0.000000 -0.000000 -0.535714
v 0.000000 -0.000000 -0.428571
v 0.000000 -0.000000 -0.321429
v 0.000000 -0.000000 -0.214286
v 0.000000 -0.000000 -0.107143
v -0.020903 -0.000000 -0.105084
v -0.041805 -0.000000 -0.210168
v -0.062708 -0.000000 -0.315252
v -0.083610 -0.000000 -0.420337
v -0.104513 -0.000000 -0.525421
v -0.125415 -0.000000 -0.630505
v 0.075761 -0.000000 -0.075761
v 0.151523 -0.000000 -0.151523
v 0.227284 -0.000000 -0.227284
v 0.303046 -0.000000 -0.303046
v 0.378807 -0.000000 -0.378807
v 0.454569 -0.000000 -0.454569
v -0.020903 0.000000 0.105084
v -0.041805 0.000000 0.210168
v -0.062708 0.000000 0.315252
v -0.083610 0.000000 0.420337
v -0.104513 0.000000 0.525421
v -0.125415 0.000000 0.630505
v -0.041002 -0.000000 -0.098987
v -0.082004 -0.000000 -0.197974
v -0.123005 -0.000000 -0.296961
v -0.164007 -0.000000 -0.395948
v -0.205009 -0.000000 -0.494935
v -0.246011 -0.000000 -0.593922
v 0.059525 -0.000000 -0.089086
v 0.119051 -0.000000 -0.178172
v 0.178576 -0.000000 -0.267258
v 0.238102 -0.000000 -0.356344
v 0.297627 -0.000000 -0.445430
v 0.357152 -0.000000 -0.534516
v 0.000000 0.000000 0.107143
v 0.000000 0.000000 0.214286
v 0.000000 0.000000 0.321429
v 0.000000 0.000000 0.428571
v 0.000000 0.000000 0.535714
v 0.000000 0.000000 0.642857
v -0.059525 -0.000000 -0.089086
v -0.119051 -0.000000 -0.178172
v -0.178576 -0.000000 -0.267258
v -0.238102 -0.000000 -0.356344
v -0.297627 -0.000000 -0.445430
v -0.357152 -0.000000 -0.534516
v 0.041002 -0.000000 -0.098987
v 0.082004 -0.000000 -0.197974
v 0.123005 -0.000000 -0.296961
v 0.164007 -0.000000 -0.395948
v 0.205009 -0.000000 -0.494935
v 0.246011 -0.000000 -0.593922
v 0.020903 0.000000 0.105084
v 0.041805 0.000000 0.210168
v 0.062708 0.000000 0.315252
v 0.083610 0.000000 0.420337
v 0.104513 0.000000 0.525421
v 0.125415 0.000000 0.630505
v -0.075761 -0.000000 -0.075761
v -0.151523 -0.000000 -0.151523
v -0.227284 -0.000000 -0.227284
v -0.303046 -0.000000 -0.303046
v -0.378807 -0.000000 -0.378807
v -0.454569 -0.000000 -0.454569
v 0.020903 -0.000000 -0.105084
v 0.041805 -0.000000 -0.210168
v 0.062708 -0.000000 -0.315252
v 0.083610 -0.000000 -0.420337
v 0.104513 -0.000000 -0.525421
v 0.125415 -0.000000 -0.630505
v 0.041002 0.000000 0.098987
v 0.082004 0.000000 0.197974
v 0.123005 0.000000 0.296961
v 0.164007 0.000000 0.395948
v 0.205009 0.000000 0.494935
v 0.246011 0.000000 0.593922
v -0.089086 -0.000000 -0.059525
v -0.178172 -0.000000 -0.119051
v -0.267258 -0.000000 -0.178576
v -0.356344 -0.000000 -0.238102
v -0.445430 -0.000000 -0.297627
v -0.534516 -0.000000 -0.357152
v 0.059525 0.000000 0.089086
v 0.119051 0.000000 0.178172
v 0.178576 0.000000 0.267258
v 0.238102 0.000000 0.356344
v 0.297627 0.000000 0.445430
v 0.357152 0.000000 0.534516
v -0.098987 -0.000000 -0.041002
v -0.197974 -0.000000 -0.082004
v -0.296961 -0.000000 -0.123005
v -0.395948 -0.000000 -0.164007
v -0.494935 -0.000000 -0.205009
v -0.593922 -0.000000 -0.246011
v 0.075761 0.000000 0.075761
v 0.151523 0.000000 0.151523
v 0.227284 0.000000 0.227284
v 0.303046 0.000000 0.303046
v 0.378807 0.000000 0.378807
v 0.454569 0.000000 0.454569
v -0.105084 -0.000000 -0.020903
v -0.210168 -0.000000 -0.041805
v -0.315252 -0.000000 -0.062708
v -0.420337 -0.000000 -0.083610
v -0.525421 -0.000000 -0.104513
v -0.630505 -0.000000 -0.125415
v 0.089086 0.000000 0.059525
v 0.178172 0.000000 0.119051
v 0.267258 0.000000 0.178576
v 0.356344 0.000000 0.238102
v 0.445430 0.000000 0.297627
v 0.534516 0.000000 0.357152
v -0.107143 0.000000 0.000000
v -0.214286 0.000000 0.000000
v -0.321429 0.000000 0.000000
v -0.428571 0.000000 0.000000
v -0.535714 0.000000 0.000000
v -0.642857 0.000000 0.000000
v 0.098987 0.000000 0.041002
v 0.197974 0.000000 0.082004
v 0.296961 0.000000 0.123005
v 0.395948 0.000000 0.164007
v 0.494935 0.000000 0.205009
v 0.593922 0.000000 0.246011
v -0.105084 0.000000 0.020903
v -0.210168 0.000000 0.041805
v -0.315252 0.000000 0.062708
v -0.420337 0.000000 0.083610
v -0.525421 0.000000 0.104513
v -0.630505 0.000000 0.125415
v 0.105084 0.000000 0.020903
v 0.210168 0.000000 0.041805
v 0.315252 0.000000 0.062708
v 0.420337 0.000000 0.083610
v 0.525421 0.000000 0.104513
v 0.630505 0.000000 0.125415
v -0.098987 0.000000 0.041002
v -0.197974 0.000000 0.082004
v -0.296961 0.000000 0.123005
v -0.395948 0.000000 0.164007
v -0.494935 0.000000 0.205009
v -0.593922 0.000000 0.246011
v 0.107143 0.000000 0.000000
v 0.214286 0.000000 0.000000
v 0.321429 0.000000 0.000000
v 0.428571 0.000000 0.000000
v 0.535714 0.000000 0.000000
v 0.642857 0.000000 0.000000
v -0.089086 0.000000 0.059525
v -0.178172 0.000000 0.119051
v -0.267258 0.000000 0.178576
v -0.356344 0.000000 0.238102
v -0.445430 0.000000 0.297627
v -0.534516 0.000000 0.357152
vn -0.0000 -1.0000 -0.0000
vt 0.565991 0.527335
vt 0.570056 0.513935
vt 0.500000 0.500000
vt 0.460317 0.440609
vt 0.449493 0.449493
vt 0.559391 0.539683
vt 0.472665 0.434009
vt 0.486065 0.570056
vt 0.500000 0.571429
vt 0.550507 0.550507
vt 0.486065 0.429944
vt 0.472665 0.565991
vt 0.539683 0.559391
vt 0.500000 0.428571
vt 0.460317 0.559391
vt 0.527335 0.565991
vt 0.513935 0.429944
vt 0.449493 0.550507
vt 0.513935 0.570056
vt 0.527335 0.434009
vt 0.440609 0.539683
vt 0.539683 0.440609
vt 0.434009 0.527335
vt 0.550507 0.449493
vt 0.429944 0.513935
vt 0.559391 0.460317
vt 0.428571 0.500000
vt 0.565991 0.472665
vt 0.429944 0.486065
vt 0.570056 0.486065
vt 0.434009 0.472665
vt 0.571429 0.500000
vt 0.440609 0.460317
vt 0.146447 0.146447
vt 0.084265 0.222215
vt 0.143656 0.261899
vt 0.196954 0.196954
vt 0.203047 0.301582
vt 0.247462 0.247462
vt 0.262437 0.341265
vt 0.297969 0.297969
vt 0.321828 0.380949
vt 0.348477 0.348477
vt 0.381218 0.420633
vt 0.398985 0.398985
vt 0.990393 0.597545
vt 1.000000 0.500000
vt 0.928571 0.500000
vt 0.920336 0.583610
vt 0.857142 0.500000
vt 0.850281 0.569675
vt 0.785714 0.500000
vt 0.780225 0.555740
vt 0.714286 0.500000
vt 0.710168 0.541805
vt 0.642857 0.500000
vt 0.640112 0.527870
vt 0.038060 0.308658
vt 0.104052 0.335993
vt 0.170043 0.363327
vt 0.236035 0.390662
vt 0.302026 0.417997
vt 0.368017 0.445331
vt 0.990393 0.402455
vt 0.920336 0.416390
vt 0.850281 0.430325
vt 0.780225 0.444260
vt 0.710168 0.458195
vt 0.640112 0.472130
vt 0.009607 0.402455
vt 0.079663 0.416390
vt 0.149719 0.430325
vt 0.219775 0.444260
vt 0.289832 0.458195
vt 0.359888 0.472130
vt 0.961940 0.308658
vt 0.895948 0.335993
vt 0.829957 0.363327
vt 0.763965 0.390662
vt 0.697974 0.417997
vt 0.631982 0.445331
vt 0.000000 0.500000
vt 0.071429 0.500000
vt 0.142857 0.500000
vt 0.214286 0.500000
vt 0.285714 0.500000
vt 0.357143 0.500000
vt 0.915734 0.222215
vt 0.856344 0.261899
vt 0.796953 0.301582
vt 0.737563 0.341265
vt 0.678172 0.380949
vt 0.618781 0.420633
vt 0.009607 0.597545
vt 0.079663 0.583610
vt 0.149719 0.569675
vt 0.219775 0.555740
vt 0.289832 0.541805
vt 0.359888 0.527870
vt 0.853553 0.146447
vt 0.803046 0.196954
vt 0.752538 0.247462
vt 0.702031 0.297969
vt 0.651522 0.348477
vt 0.601015 0.398985
vt 0.038060 0.691342
vt 0.104052 0.664007
vt 0.170043 0.636673
vt 0.236035 0.609338
vt 0.302026 0.582003
vt 0.368017 0.554669
vt 0.777785 0.084265
vt 0.738101 0.143656
vt 0.698418 0.203047
vt 0.658734 0.262437
vt 0.619051 0.321828
vt 0.579367 0.381219
vt 0.084265 0.777785
vt 0.143656 0.738101
vt 0.203047 0.698418
vt 0.262437 0.658735
vt 0.321828 0.619051
vt 0.381218 0.579367
vt 0.691342 0.038060
vt 0.664007 0.104052
vt 0.636672 0.170043
vt 0.609338 0.236035
vt 0.582003 0.302026
vt 0.554669 0.368017
vt 0.500000 1.000000
vt 0.597545 0.990393
vt 0.583610 0.920337
vt 0.500000 0.928571
vt 0.569675 0.850281
vt 0.500000 0.857143
vt 0.555740 0.780225
vt 0.500000 0.785714
vt 0.541805 0.710168
vt 0.500000 0.714286
vt 0.527870 0.640112
vt 0.500000 0.642857
vt 0.146447 0.853553
vt 0.196954 0.803046
vt 0.247462 0.752538
vt 0.297969 0.702031
vt 0.348477 0.651523
vt 0.398985 0.601015
vt 0.597545 0.009607
vt 0.583610 0.079663
vt 0.569675 0.149719
vt 0.555740 0.219775
vt 0.541805 0.289832
vt 0.527870 0.359888
vt 0.691342 0.961940
vt 0.664007 0.895948
vt 0.636672 0.829957
vt 0.609338 0.763965
vt 0.582003 0.697974
vt 0.554669 0.631983
vt 0.222215 0.915735
vt 0.261899 0.856344
vt 0.301582 0.796953
vt 0.341265 0.737563
vt 0.380949 0.678172
vt 0.420633 0.618781
vt 0.500000 0.000000
vt 0.500000 0.071429
vt 0.500000 0.142857
vt 0.500000 0.214286
vt 0.500000 0.285714
vt 0.500000 0.357143
vt 0.777785 0.915735
vt 0.738101 0.856344
vt 0.698418 0.796953
vt 0.658734 0.737563
vt 0.619051 0.678172
vt 0.579367 0.618781
vt 0.308658 0.961940
vt 0.335993 0.895948
vt 0.363327 0.829957
vt 0.390662 0.763965
vt 0.417997 0.697974
vt 0.445331 0.631983
vt 0.402455 0.009607
vt 0.416390 0.079663
vt 0.430325 0.149719
vt 0.444260 0.219775
vt 0.458195 0.289832
vt 0.472130 0.359888
vt 0.853553 0.853553
vt 0.803046 0.803046
vt 0.752538 0.752538
vt 0.702031 0.702031
vt 0.651522 0.651523
vt 0.601015 0.601015
vt 0.402455 0.990393
vt 0.416390 0.920337
vt 0.430325 0.850281
vt 0.444260 0.780225
vt 0.458195 0.710168
vt 0.472130 0.640112
vt 0.308658 0.038060
vt 0.335993 0.104052
vt 0.363327 0.170043
vt 0.390662 0.236035
vt 0.417997 0.302026
vt 0.445331 0.368017
vt 0.915734 0.777785
vt 0.856344 0.738101
vt 0.796953 0.698418
vt 0.737563 0.658735
vt 0.678172 0.619051
vt 0.618781 0.579367
vt 0.222215 0.084265
vt 0.261899 0.143656
vt 0.301582 0.203047
vt 0.341265 0.262437
vt 0.380949 0.321828
vt 0.420633 0.381219
vt 0.961940 0.691342
vt 0.895948 0.664007
vt 0.829957 0.636673
vt 0.763965 0.609338
vt 0.697974 0.582003
vt 0.631982 0.554669
s 0
f 40/1/1 39/2/1 33/3/1
f 52/4/1 51/5/1 33/3/1
f 58/6/1 40/1/1 33/3/1
f 64/7/1 52/4/1 33/3/1
f 76/8/1 75/9/1 33/3/1
f 82/10/1 58/6/1 33/3/1
f 88/11/1 64/7/1 33/3/1
f 94/12/1 76/8/1 33/3/1
f 100/13/1 82/10/1 33/3/1
f 106/14/1 88/11/1 33/3/1
f 112/15/1 94/12/1 33/3/1
f 118/16/1 100/13/1 33/3/1
f 124/17/1 106/14/1 33/3/1
f 130/18/1 112/15/1 33/3/1
f 136/19/1 118/16/1 33/3/1
f 142/20/1 124/17/1 33/3/1
f 148/21/1 130/18/1 33/3/1
f 75/9/1 136/19/1 33/3/1
f 154/22/1 142/20/1 33/3/1
f 160/23/1 148/21/1 33/3/1
f 166/24/1 154/22/1 33/3/1
f 172/25/1 160/23/1 33/3/1
f 178/26/1 166/24/1 33/3/1
f 184/27/1 172/25/1 33/3/1
f 190/28/1 178/26/1 33/3/1
f 196/29/1 184/27/1 33/3/1
f 202/30/1 190/28/1 33/3/1
f 208/31/1 196/29/1 33/3/1
f 214/32/1 202/30/1 33/3/1
f 220/33/1 208/31/1 33/3/1
f 39/2/1 214/32/1 33/3/1
f 51/5/1 220/33/1 33/3/1
f 13/34/1 12/35/1 225/36/1 46/37/1
f 46/37/1 225/36/1 224/38/1 47/39/1
f 47/39/1 224/38/1 223/40/1 48/41/1
f 48/41/1 223/40/1 222/42/1 49/43/1
f 49/43/1 222/42/1 221/44/1 50/45/1
f 50/45/1 221/44/1 220/33/1 51/5/1
f 26/46/1 25/47/1 219/48/1 34/49/1
f 34/49/1 219/48/1 218/50/1 35/51/1
f 35/51/1 218/50/1 217/52/1 36/53/1
f 36/53/1 217/52/1 216/54/1 37/55/1
f 37/55/1 216/54/1 215/56/1 38/57/1
f 38/57/1 215/56/1 214/32/1 39/2/1
f 12/35/1 11/58/1 213/59/1 225/36/1
f 225/36/1 213/59/1 212/60/1 224/38/1
f 224/38/1 212/60/1 211/61/1 223/40/1
f 223/40/1 211/61/1 210/62/1 222/42/1
f 222/42/1 210/62/1 209/63/1 221/44/1
f 221/44/1 209/63/1 208/31/1 220/33/1
f 25/47/1 24/64/1 207/65/1 219/48/1
f 219/48/1 207/65/1 206/66/1 218/50/1
f 218/50/1 206/66/1 205/67/1 217/52/1
f 217/52/1 205/67/1 204/68/1 216/54/1
f 216/54/1 204/68/1 203/69/1 215/56/1
f 215/56/1 203/69/1 202/30/1 214/32/1
f 11/58/1 10/70/1 201/71/1 213/59/1
f 213/59/1 201/71/1 200/72/1 212/60/1
f 212/60/1 200/72/1 199/73/1 211/61/1
f 211/61/1 199/73/1 198/74/1 210/62/1
f 210/62/1 198/74/1 197/75/1 209/63/1
f 209/63/1 197/75/1 196/29/1 208/31/1
f 24/64/1 23/76/1 195/77/1 207/65/1
f 207/65/1 195/77/1 194/78/1 206/66/1
f 206/66/1 194/78/1 193/79/1 205/67/1
f 205/67/1 193/79/1 192/80/1 204/68/1
f 204/68/1 192/80/1 191/81/1 203/69/1
f 203/69/1 191/81/1 190/28/1 202/30/1
f 10/70/1 9/82/1 189/83/1 201/71/1
f 201/71/1 189/83/1 188/84/1 200/72/1
f 200/72/1 188/84/1 187/85/1 199/73/1
f 199/73/1 187/85/1 186/86/1 198/74/1
f 198/74/1 186/86/1 185/87/1 197/75/1
f 197/75/1 185/87/1 184/27/1 196/29/1
f 23/76/1 22/88/1 183/89/1 195/77/1
f 195/77/1 183/89/1 182/90/1 194/78/1
f 194/78/1 182/90/1 181/91/1 193/79/1
f 193/79/1 181/91/1 180/92/1 192/80/1
f 192/80/1 180/92/1 179/93/1 191/81/1
f 191/81/1 179/93/1 178/26/1 190/28/1
f 9/82/1 8/94/1 177/95/1 189/83/1
f 189/83/1 177/95/1 176/96/1 188/84/1
f 188/84/1 176/96/1 175/97/1 187/85/1
f 187/85/1 175/97/1 174/98/1 186/86/1
f 186/86/1 174/98/1 173/99/1 185/87/1
f 185/87/1 173/99/1 172/25/1 184/27/1
f 22/88/1 21/100/1 171/101/1 183/89/1
f 183/89/1 171/101/1 170/102/1 182/90/1
f 182/90/1 170/102/1 169/103/1 181/91/1
f 181/91/1 169/103/1 168/104/1 180/92/1
f 180/92/1 168/104/1 167/105/1 179/93/1
f 179/93/1 167/105/1 166/24/1 178/26/1
f 8/94/1 7/106/1 165/107/1 177/95/1
f 177/95/1 165/107/1 164/108/1 176/96/1
f 176/96/1 164/108/1 163/109/1 175/97/1
f 175/97/1 163/109/1 162/110/1 174/98/1
f 174/98/1 162/110/1 161/111/1 173/99/1
f 173/99/1 161/111/1 160/23/1 172/25/1
f 21/100/1 20/112/1 159/113/1 171/101/1
f 171/101/1 159/113/1 158/114/1 170/102/1
f 170/102/1 158/114/1 157/115/1 169/103/1
f 169/103/1 157/115/1 156/116/1 168/104/1
f 168/104/1 156/116/1 155/117/1 167/105/1
f 167/105/1 155/117/1 154/22/1 166/24/1
f 7/106/1 6/118/1 153/119/1 165/107/1
f 165/107/1 153/119/1 152/120/1 164/108/1
f 164/108/1 152/120/1 151/121/1 163/109/1
f 163/109/1 151/121/1 150/122/1 162/110/1
f 162/110/1 150/122/1 149/123/1 161/111/1
f 161/111/1 149/123/1 148/21/1 160/23/1
f 20/112/1 19/124/1 147/125/1 159/113/1
f 159/113/1 147/125/1 146/126/1 158/114/1
f 158/114/1 146/126/1 145/127/1 157/115/1
f 157/115/1 145/127/1 144/128/1 156/116/1
f 156/116/1 144/128/1 143/129/1 155/117/1
f 155/117/1 143/129/1 142/20/1 154/22/1
f 1/130/1 32/131/1 141/132/1 70/133/1
f 70/133/1 141/132/1 140/134/1 71/135/1
f 71/135/1 140/134/1 139/136/1 72/137/1
f 72/137/1 139/136/1 138/138/1 73/139/1
f 73/139/1 138/138/1 137/140/1 74/141/1
f 74/141/1 137/140/1 136/19/1 75/9/1
f 6/118/1 5/142/1 135/143/1 153/119/1
f 153/119/1 135/143/1 134/144/1 152/120/1
f 152/120/1 134/144/1 133/145/1 151/121/1
f 151/121/1 133/145/1 132/146/1 150/122/1
f 150/122/1 132/146/1 131/147/1 149/123/1
f 149/123/1 131/147/1 130/18/1 148/21/1
f 19/124/1 18/148/1 129/149/1 147/125/1
f 147/125/1 129/149/1 128/150/1 146/126/1
f 146/126/1 128/150/1 127/151/1 145/127/1
f 145/127/1 127/151/1 126/152/1 144/128/1
f 144/128/1 126/152/1 125/153/1 143/129/1
f 143/129/1 125/153/1 124/17/1 142/20/1
f 32/131/1 31/154/1 123/155/1 141/132/1
f 141/132/1 123/155/1 122/156/1 140/134/1
f 140/134/1 122/156/1 121/157/1 139/136/1
f 139/136/1 121/157/1 120/158/1 138/138/1
f 138/138/1 120/158/1 119/159/1 137/140/1
f 137/140/1 119/159/1 118/16/1 136/19/1
f 5/142/1 4/160/1 117/161/1 135/143/1
f 135/143/1 117/161/1 116/162/1 134/144/1
f 134/144/1 116/162/1 115/163/1 133/145/1
f 133/145/1 115/163/1 114/164/1 132/146/1
f 132/146/1 114/164/1 113/165/1 131/147/1
f 131/147/1 113/165/1 112/15/1 130/18/1
f 18/148/1 17/166/1 111/167/1 129/149/1
f 129/149/1 111/167/1 110/168/1 128/150/1
f 128/150/1 110/168/1 109/169/1 127/151/1
f 127/151/1 109/169/1 108/170/1 126/152/1
f 126/152/1 108/170/1 107/171/1 125/153/1
f 125/153/1 107/171/1 106/14/1 124/17/1
f 31/154/1 30/172/1 105/173/1 123/155/1
f 123/155/1 105/173/1 104/174/1 122/156/1
f 122/156/1 104/174/1 103/175/1 121/157/1
f 121/157/1 103/175/1 102/176/1 120/158/1
f 120/158/1 102/176/1 101/177/1 119/159/1
f 119/159/1 101/177/1 100/13/1 118/16/1
f 4/160/1 3/178/1 99/179/1 117/161/1
f 117/161/1 99/179/1 98/180/1 116/162/1
f 116/162/1 98/180/1 97/181/1 115/163/1
f 115/163/1 97/181/1 96/182/1 114/164/1
f 114/164/1 96/182/1 95/183/1 113/165/1
f 113/165/1 95/183/1 94/12/1 112/15/1
f 17/166/1 16/184/1 93/185/1 111/167/1
f 111/167/1 93/185/1 92/186/1 110/168/1
f 110/168/1 92/186/1 91/187/1 109/169/1
f 109/169/1 91/187/1 90/188/1 108/170/1
f 108/170/1 90/188/1 89/189/1 107/171/1
f 107/171/1 89/189/1 88/11/1 106/14/1
f 30/172/1 29/190/1 87/191/1 105/173/1
f 105/173/1 87/191/1 86/192/1 104/174/1
f 104/174/1 86/192/1 85/193/1 103/175/1
f 103/175/1 85/193/1 84/194/1 102/176/1
f 102/176/1 84/194/1 83/195/1 101/177/1
f 101/177/1 83/195/1 82/10/1 100/13/1
f 3/178/1 2/196/1 81/197/1 99/179/1
f 99/179/1 81/197/1 80/198/1 98/180/1
f 98/180/1 80/198/1 79/199/1 97/181/1
f 97/181/1 79/199/1 78/200/1 96/182/1
f 96/182/1 78/200/1 77/201/1 95/183/1
f 95/183/1 77/201/1 76/8/1 94/12/1
f 16/184/1 15/202/1 69/203/1 93/185/1
f 93/185/1 69/203/1 68/204/1 92/186/1
f 92/186/1 68/204/1 67/205/1 91/187/1
f 91/187/1 67/205/1 66/206/1 90/188/1
f 90/188/1 66/206/1 65/207/1 89/189/1
f 89/189/1 65/207/1 64/7/1 88/11/1
f 29/190/1 28/208/1 63/209/1 87/191/1
f 87/191/1 63/209/1 62/210/1 86/192/1
f 86/192/1 62/210/1 61/211/1 85/193/1
f 85/193/1 61/211/1 60/212/1 84/194/1
f 84/194/1 60/212/1 59/213/1 83/195/1
f 83/195/1 59/213/1 58/6/1 82/10/1
f 2/196/1 1/130/1 70/133/1 81/197/1
f 81/197/1 70/133/1 71/135/1 80/198/1
f 80/198/1 71/135/1 72/137/1 79/199/1
f 79/199/1 72/137/1 73/139/1 78/200/1
f 78/200/1 73/139/1 74/141/1 77/201/1
f 77/201/1 74/141/1 75/9/1 76/8/1
f 15/202/1 14/214/1 57/215/1 69/203/1
f 69/203/1 57/215/1 56/216/1 68/204/1
f 68/204/1 56/216/1 55/217/1 67/205/1
f 67/205/1 55/217/1 54/218/1 66/206/1
f 66/206/1 54/218/1 53/219/1 65/207/1
f 65/207/1 53/219/1 52/4/1 64/7/1
f 28/208/1 27/220/1 45/221/1 63/209/1
f 63/209/1 45/221/1 44/222/1 62/210/1
f 62/210/1 44/222/1 43/223/1 61/211/1
f 61/211/1 43/223/1 42/224/1 60/212/1
f 60/212/1 42/224/1 41/225/1 59/213/1
f 59/213/1 41/225/1 40/1/1 58/6/1
f 14/214/1 13/34/1 46/37/1 57/215/1
f 57/215/1 46/37/1 47/39/1 56/216/1
f 56/216/1 47/39/1 48/41/1 55/217/1
f 55/217/1 48/41/1 49/43/1 54/218/1
f 54/218/1 49/43/1 50/45/1 53/219/1
f 53/219/1 50/45/1 51/5/1 52/4/1
f 27/220/1 26/46/1 34/49/1 45/221/1
f 45/221/1 34/49/1 35/51/1 44/222/1
f 44/222/1 35/51/1 36/53/1 43/223/1
f 43/223/1 36/53/1 37/55/1 42/224/1
f 42/224/1 37/55/1 38/57/1 41/225/1
f 41/225/1 38/57/1 39/2/1 40/1/1
