# Blender 3.6.2
# www.blender.org
mtllib SewerPipeFence.mtl
o Cylinder.001
v -0.000000 -34.000000 -43.750000
v 0.000000 -34.000000 43.750000
v 0.866025 -34.500000 -43.750000
v 0.866025 -34.500000 43.750000
v 0.866025 -35.500000 -43.750000
v 0.866025 -35.500000 43.750000
v -0.000000 -36.000000 -43.750000
v 0.000000 -36.000000 43.750000
v -0.866025 -35.500000 -43.750000
v -0.866025 -35.500000 43.750000
v -0.866025 -34.500000 -43.750000
v -0.866025 -34.500000 43.750000
v -0.000000 -19.999998 -43.750000
v 0.000000 -20.000002 43.750000
v 0.866025 -20.499998 -43.750000
v 0.866025 -20.500002 43.750000
v 0.866025 -21.499998 -43.750000
v 0.866025 -21.500002 43.750000
v -0.000000 -21.999998 -43.750000
v 0.000000 -22.000002 43.750000
v -0.866025 -21.499998 -43.750000
v -0.866025 -21.500002 43.750000
v -0.866025 -20.499998 -43.750000
v -0.866025 -20.500002 43.750000
v -0.000000 -5.999998 -43.750000
v 0.000000 -6.000002 43.750000
v 0.866025 -6.499998 -43.750000
v 0.866025 -6.500002 43.750000
v 0.866025 -7.499998 -43.750000
v 0.866025 -7.500002 43.750000
v -0.000000 -7.999998 -43.750000
v 0.000000 -8.000002 43.750000
v -0.866025 -7.499998 -43.750000
v -0.866025 -7.500002 43.750000
v -0.866025 -6.499998 -43.750000
v -0.866025 -6.500002 43.750000
v -0.000000 8.000000 -43.749996
v 0.000000 7.999996 43.750000
v 0.866025 7.500000 -43.749996
v 0.866025 7.499996 43.750000
v 0.866025 6.500000 -43.749996
v 0.866025 6.499996 43.750000
v -0.000000 6.000000 -43.749996
v 0.000000 5.999996 43.750000
v -0.866025 6.500000 -43.749996
v -0.866025 6.499996 43.750000
v -0.866025 7.500000 -43.749996
v -0.866025 7.499996 43.750000
v 0.000000 22.000000 -43.749996
v 0.000000 21.999996 43.750000
v 0.866025 21.500000 -43.749996
v 0.866025 21.499996 43.750000
v 0.866025 20.500000 -43.749996
v 0.866025 20.499996 43.750000
v 0.000000 20.000000 -43.749996
v 0.000000 19.999996 43.750000
v -0.866025 20.500000 -43.749996
v -0.866025 20.499996 43.750000
v -0.866025 21.500000 -43.749996
v -0.866025 21.499996 43.750000
v 0.000000 36.000000 -43.749996
v 0.000000 36.000000 43.750000
v 0.866025 35.500000 -43.749996
v 0.866025 35.500000 43.750000
v 0.866025 34.500000 -43.749996
v 0.866025 34.500000 43.750000
v 0.000000 34.000000 -43.749996
v 0.000000 34.000000 43.750000
v -0.866025 34.500000 -43.749996
v -0.866025 34.500000 43.750000
v -0.866025 35.500000 -43.749996
v -0.866025 35.500000 43.750000
v 0.000000 -43.749996 34.000008
v 0.000000 43.750000 34.000000
v 0.866025 -43.749996 34.500008
v 0.866025 43.750000 34.500000
v 0.866025 -43.749996 35.500000
v 0.866025 43.750000 35.500000
v 0.000000 -43.749996 36.000000
v 0.000000 43.750000 36.000000
v -0.866025 -43.749996 35.500000
v -0.866025 43.750000 35.500000
v -0.866025 -43.749996 34.500008
v -0.866025 43.750000 34.500000
v 0.000000 -43.749996 20.000004
v -0.000000 43.750000 20.000000
v 0.866025 -43.749996 20.500004
v 0.866025 43.750000 20.500000
v 0.866025 -43.749996 21.500000
v 0.866025 43.750000 21.500004
v 0.000000 -43.749996 22.000000
v 0.000000 43.750000 22.000004
v -0.866025 -43.749996 21.500000
v -0.866025 43.750000 21.500004
v -0.866025 -43.749996 20.500004
v -0.866025 43.750000 20.500000
v 0.000000 -43.749996 6.000004
v 0.000000 43.750000 6.000004
v 0.866025 -43.749996 6.500004
v 0.866025 43.750000 6.500000
v 0.866025 -43.749996 7.500004
v 0.866025 43.750000 7.500000
v 0.000000 -43.749996 8.000004
v 0.000000 43.750000 8.000004
v -0.866025 -43.749996 7.500004
v -0.866025 43.750000 7.500000
v -0.866025 -43.749996 6.500004
v -0.866025 43.750000 6.500000
v 0.000000 -43.749996 -7.999994
v 0.000000 43.750000 -7.999996
v 0.866025 -43.749996 -7.499996
v 0.866025 43.750000 -7.499998
v 0.866025 -43.749996 -6.499996
v 0.866025 43.750000 -6.499998
v -0.000000 -43.749996 -5.999996
v 0.000000 43.750000 -5.999998
v -0.866025 -43.749996 -6.499996
v -0.866025 43.750000 -6.499998
v -0.866025 -43.749996 -7.499996
v -0.866025 43.750000 -7.499998
v -0.000000 -43.750000 -22.000000
v 0.000000 43.750000 -21.999996
v 0.866025 -43.750000 -21.500000
v 0.866025 43.750000 -21.499996
v 0.866025 -43.750000 -20.499996
v 0.866025 43.750000 -20.499992
v -0.000000 -43.750000 -20.000000
v 0.000000 43.750000 -19.999996
v -0.866025 -43.750000 -20.499996
v -0.866025 43.750000 -20.499992
v -0.866025 -43.750000 -21.500000
v -0.866025 43.750000 -21.499996
v 0.000000 -43.750000 -35.999996
v 0.000000 43.750000 -35.999992
v 0.866025 -43.750000 -35.499996
v 0.866025 43.750000 -35.499992
v 0.866025 -43.750000 -34.500000
v 0.866025 43.750000 -34.499996
v -0.000000 -43.750000 -34.000000
v 0.000000 43.750000 -33.999996
v -0.866025 -43.750000 -34.500000
v -0.866025 43.750000 -34.499996
v -0.866025 -43.750000 -35.499996
v -0.866025 43.750000 -35.499992
vn -0.0000 0.7924 -0.6100
vn -0.0000 0.7924 0.6100
vn 0.6862 0.3962 0.6100
vn 0.6862 0.3962 -0.6100
vn 0.6862 -0.3962 0.6100
vn 0.6862 -0.3962 -0.6100
vn -0.0000 -0.7924 0.6100
vn -0.0000 -0.7924 -0.6100
vn -0.6862 -0.3962 0.6100
vn -0.6862 -0.3962 -0.6100
vn -0.6862 0.3962 0.6100
vn -0.6862 0.3962 -0.6100
vn -0.0000 -0.6100 -0.7924
vn -0.0000 0.6100 -0.7924
vn 0.6862 0.6100 -0.3962
vn 0.6862 -0.6100 -0.3962
vn 0.6862 0.6100 0.3962
vn 0.6862 -0.6100 0.3962
vn -0.0000 0.6100 0.7924
vn -0.0000 -0.6100 0.7924
vn -0.6862 0.6100 0.3962
vn -0.6862 -0.6100 0.3962
vn -0.6862 0.6100 -0.3962
vn -0.6862 -0.6100 -0.3962
vt 1.000000 0.500000
vt 1.000000 1.000000
vt 0.833333 1.000000
vt 0.833333 0.500000
vt 0.666667 1.000000
vt 0.666667 0.500000
vt 0.500000 1.000000
vt 0.500000 0.500000
vt 0.333333 1.000000
vt 0.333333 0.500000
vt 0.457846 0.370000
vt 0.250000 0.490000
vt 0.042154 0.370000
vt 0.042154 0.130000
vt 0.250000 0.010000
vt 0.457846 0.130000
vt 0.166667 1.000000
vt 0.166667 0.500000
vt -0.000000 1.000000
vt -0.000000 0.500000
vt 0.750000 0.490000
vt 0.957846 0.370000
vt 0.957846 0.130000
vt 0.750000 0.010000
vt 0.542154 0.130000
vt 0.542154 0.370000
s 1
f 1/1/1 2/2/2 4/3/3 3/4/4
f 3/4/4 4/3/3 6/5/5 5/6/6
f 5/6/6 6/5/5 8/7/7 7/8/8
f 7/8/8 8/7/7 10/9/9 9/10/10
f 4/11/3 2/12/2 12/13/11 10/14/9 8/15/7 6/16/5
f 9/10/10 10/9/9 12/17/11 11/18/12
f 11/18/12 12/17/11 2/19/2 1/20/1
f 1/21/1 3/22/4 5/23/6 7/24/8 9/25/10 11/26/12
f 13/1/1 14/2/2 16/3/3 15/4/4
f 15/4/4 16/3/3 18/5/5 17/6/6
f 17/6/6 18/5/5 20/7/7 19/8/8
f 19/8/8 20/7/7 22/9/9 21/10/10
f 16/11/3 14/12/2 24/13/11 22/14/9 20/15/7 18/16/5
f 21/10/10 22/9/9 24/17/11 23/18/12
f 23/18/12 24/17/11 14/19/2 13/20/1
f 13/21/1 15/22/4 17/23/6 19/24/8 21/25/10 23/26/12
f 25/1/1 26/2/2 28/3/3 27/4/4
f 27/4/4 28/3/3 30/5/5 29/6/6
f 29/6/6 30/5/5 32/7/7 31/8/8
f 31/8/8 32/7/7 34/9/9 33/10/10
f 28/11/3 26/12/2 36/13/11 34/14/9 32/15/7 30/16/5
f 33/10/10 34/9/9 36/17/11 35/18/12
f 35/18/12 36/17/11 26/19/2 25/20/1
f 25/21/1 27/22/4 29/23/6 31/24/8 33/25/10 35/26/12
f 37/1/1 38/2/2 40/3/3 39/4/4
f 39/4/4 40/3/3 42/5/5 41/6/6
f 41/6/6 42/5/5 44/7/7 43/8/8
f 43/8/8 44/7/7 46/9/9 45/10/10
f 40/11/3 38/12/2 48/13/11 46/14/9 44/15/7 42/16/5
f 45/10/10 46/9/9 48/17/11 47/18/12
f 47/18/12 48/17/11 38/19/2 37/20/1
f 37/21/1 39/22/4 41/23/6 43/24/8 45/25/10 47/26/12
f 49/1/1 50/2/2 52/3/3 51/4/4
f 51/4/4 52/3/3 54/5/5 53/6/6
f 53/6/6 54/5/5 56/7/7 55/8/8
f 55/8/8 56/7/7 58/9/9 57/10/10
f 52/11/3 50/12/2 60/13/11 58/14/9 56/15/7 54/16/5
f 57/10/10 58/9/9 60/17/11 59/18/12
f 59/18/12 60/17/11 50/19/2 49/20/1
f 49/21/1 51/22/4 53/23/6 55/24/8 57/25/10 59/26/12
f 61/1/1 62/2/2 64/3/3 63/4/4
f 63/4/4 64/3/3 66/5/5 65/6/6
f 65/6/6 66/5/5 68/7/7 67/8/8
f 67/8/8 68/7/7 70/9/9 69/10/10
f 64/11/3 62/12/2 72/13/11 70/14/9 68/15/7 66/16/5
f 69/10/10 70/9/9 72/17/11 71/18/12
f 71/18/12 72/17/11 62/19/2 61/20/1
f 61/21/1 63/22/4 65/23/6 67/24/8 69/25/10 71/26/12
f 73/1/13 74/2/14 76/3/15 75/4/16
f 75/4/16 76/3/15 78/5/17 77/6/18
f 77/6/18 78/5/17 80/7/19 79/8/20
f 79/8/20 80/7/19 82/9/21 81/10/22
f 76/11/15 74/12/14 84/13/23 82/14/21 80/15/19 78/16/17
f 81/10/22 82/9/21 84/17/23 83/18/24
f 83/18/24 84/17/23 74/19/14 73/20/13
f 73/21/13 75/22/16 77/23/18 79/24/20 81/25/22 83/26/24
f 85/1/13 86/2/14 88/3/15 87/4/16
f 87/4/16 88/3/15 90/5/17 89/6/18
f 89/6/18 90/5/17 92/7/19 91/8/20
f 91/8/20 92/7/19 94/9/21 93/10/22
f 88/11/15 86/12/14 96/13/23 94/14/21 92/15/19 90/16/17
f 93/10/22 94/9/21 96/17/23 95/18/24
f 95/18/24 96/17/23 86/19/14 85/20/13
f 85/21/13 87/22/16 89/23/18 91/24/20 93/25/22 95/26/24
f 97/1/13 98/2/14 100/3/15 99/4/16
f 99/4/16 100/3/15 102/5/17 101/6/18
f 101/6/18 102/5/17 104/7/19 103/8/20
f 103/8/20 104/7/19 106/9/21 105/10/22
f 100/11/15 98/12/14 108/13/23 106/14/21 104/15/19 102/16/17
f 105/10/22 106/9/21 108/17/23 107/18/24
f 107/18/24 108/17/23 98/19/14 97/20/13
f 97/21/13 99/22/16 101/23/18 103/24/20 105/25/22 107/26/24
f 109/1/13 110/2/14 112/3/15 111/4/16
f 111/4/16 112/3/15 114/5/17 113/6/18
f 113/6/18 114/5/17 116/7/19 115/8/20
f 115/8/20 116/7/19 118/9/21 117/10/22
f 112/11/15 110/12/14 120/13/23 118/14/21 116/15/19 114/16/17
f 117/10/22 118/9/21 120/17/23 119/18/24
f 119/18/24 120/17/23 110/19/14 109/20/13
f 109/21/13 111/22/16 113/23/18 115/24/20 117/25/22 119/26/24
f 121/1/13 122/2/14 124/3/15 123/4/16
f 123/4/16 124/3/15 126/5/17 125/6/18
f 125/6/18 126/5/17 128/7/19 127/8/20
f 127/8/20 128/7/19 130/9/21 129/10/22
f 124/11/15 122/12/14 132/13/23 130/14/21 128/15/19 126/16/17
f 129/10/22 130/9/21 132/17/23 131/18/24
f 131/18/24 132/17/23 122/19/14 121/20/13
f 121/21/13 123/22/16 125/23/18 127/24/20 129/25/22 131/26/24
f 133/1/13 134/2/14 136/3/15 135/4/16
f 135/4/16 136/3/15 138/5/17 137/6/18
f 137/6/18 138/5/17 140/7/19 139/8/20
f 139/8/20 140/7/19 142/9/21 141/10/22
f 136/11/15 134/12/14 144/13/23 142/14/21 140/15/19 138/16/17
f 141/10/22 142/9/21 144/17/23 143/18/24
f 143/18/24 144/17/23 134/19/14 133/20/13
f 133/21/13 135/22/16 137/23/18 139/24/20 141/25/22 143/26/24
